<svg xmlns="http://www.w3.org/2000/svg" width="53" height="53" viewBox="0 0 53 53">
    <defs>
        <linearGradient id="a" x1="50%" y1="50%" y2="90.5%">
            <stop offset="0%" stop-color="#77C7B4"/>
            <stop offset="100%" stop-color="#27878E"/>
        </linearGradient>
    </defs>
    <g fill="none" fill-rule="nonzero">
        <path fill="#27878E" d="M27.295 40.81a3.975 3.975 0 1 1-7.95 0 3.975 3.975 0 0 1 7.95 0z"/>
        <path fill="url(#a)" d="M30.223 25.413c-.182.007-.36.027-.543.027-7.95 0-14.416-6.467-14.416-14.416 0-2.793.812-5.395 2.193-7.606-.166-.007-.33-.026-.497-.026-6.546 0-11.872 5.325-11.872 11.872v4.728c0 3.357-1.47 6.525-4.05 8.706A2.96 2.96 0 0 0 0 30.952a2.971 2.971 0 0 0 2.968 2.968h27.984a2.971 2.971 0 0 0 2.968-2.968c0-.868-.378-1.691-1.055-2.27a11.377 11.377 0 0 1-2.642-3.269z" transform="translate(6.625 6.625)"/>
        <path fill="#FFF" stroke="#77C7B4" stroke-width="1.8" d="M36.305 7.525c-5.581 0-10.124 4.543-10.124 10.124s4.543 10.124 10.124 10.124 10.124-4.543 10.124-10.124S41.886 7.525 36.305 7.525z"/>
        <path fill="#1E4758" d="M36.19 22.525c1.045 0 1.9-.266 2.564-.8.664-.532.996-1.265.996-2.2 0-.699-.247-1.3-.742-1.801-.495-.502-1.182-.767-2.062-.793l2.323-2.476V13.25h-5.622v1.376h3.478l-2.227 2.462v1.18c.33-.097.674-.145 1.03-.145.716 0 1.275.14 1.678.42.403.279.605.652.605 1.12 0 .467-.181.825-.543 1.074-.362.249-.823.373-1.382.373-.861 0-1.686-.262-2.474-.786l-.687 1.245c.999.637 2.02.956 3.065.956z"/>
    </g>
</svg>
