<svg xmlns="http://www.w3.org/2000/svg" width="70" height="70" viewBox="0 0 70 70">
    <defs>
        <linearGradient id="a" x1="50%" y1="50%" y2="100%">
            <stop offset="0%" stop-color="#2a2265"/>
            <stop offset="100%" stop-color="#2a2265"/>
        </linearGradient>
    </defs>
    <g fill="none" fill-rule="evenodd">
        <g fill="#FFF" stroke="#2a2265" stroke-width="2.623">
            <path d="M10.062 23.188h49.876v-7.442a3.935 3.935 0 0 0-3.934-3.934H13.996a3.935 3.935 0 0 0-3.934 3.934v7.442z"/>
            <path d="M10.062 22.312v31.942a3.935 3.935 0 0 0 3.934 3.934h42.008a3.935 3.935 0 0 0 3.934-3.934V22.312H10.062z"/>
        </g>
        <rect width="7" height="8.75" x="19.25" y="7" fill="#2a2265" rx="1.749"/>
        <rect width="7" height="8.75" x="43.75" y="7" fill="#2a2265" rx="1.749"/>
        <rect width="12.25" height="12.25" x="40.25" y="38.5" fill="url(#a)" rx="1.749"/>
    </g>
</svg>
