<svg xmlns="http://www.w3.org/2000/svg" width="30" height="30" viewBox="0 0 30 30">
    <path fill="#faa61a" fill-rule="evenodd" d="M15 0C6.716 0 0 6.716 0 15c0 8.284 6.716 15 15 15 8.284 0 15-6.716 15-15 0-8.284-6.716-15-15-15zm0 1.8c7.29 0 13.2 5.91 13.2 13.2 0 7.29-5.91 13.2-13.2 13.2-7.29 0-13.2-5.91-13.2-13.2C1.8 7.71 7.71 1.8 15 1.8zm-1.387 7.819c-.225 0-.432.063-.622.194l-.112.087-4.835 4.67-.098.107a.968.968 0 0 0-.212.615c0 .245.083.465.238.646l.084.087 4.876 4.693.105.084c.171.119.366.18.575.18a.98.98 0 0 0 .738-.318c.2-.2.3-.45.292-.73a1.015 1.015 0 0 0-.22-.612l-.093-.104-3.008-2.897H20l.131-.01c.203-.03.386-.12.543-.266a.997.997 0 0 0 .037-1.446 1.013 1.013 0 0 0-.627-.314l-.122-.007h-8.674l3.02-2.908.097-.106a.954.954 0 0 0 .213-.607c0-.273-.097-.518-.285-.72a.956.956 0 0 0-.72-.318z"/>
</svg>
