<svg xmlns="http://www.w3.org/2000/svg" width="60" height="60" viewBox="0 0 60 60">
    <defs>
        <linearGradient id="a" x1="50%" x2="78.125%" y1="50%" y2="100%">
            <stop offset="0%" stop-color="#2a2265"/>
            <stop offset="100%" stop-color="#2a2265"/>
        </linearGradient>
    </defs>
    <g fill="none" fill-rule="evenodd">
        <path fill="#FFF" d="M0 0h60v60H0z"/>
        <rect width="45.377" height="42.377" x="7.312" y="8.812" fill="#FFF" stroke="#2a2265" stroke-width="2.623" rx="5.246"/>
        <path fill="#FFF" d="M37.5 31.5H60V54H37.5zM0 4.5h22.5V27H0z"/>
        <path fill="#2a2265" d="M47.292 21.096l5.227 13.017c.086.224.31.378.56.387a.617.617 0 0 0 .558-.387l5.228-13.017a.614.614 0 0 0-.138-.654l-.043-.043a.62.62 0 0 0-.714-.043l-4.892 3.087-4.892-3.087a.62.62 0 0 0-.714.043.614.614 0 0 0-.18.697"/>
        <path fill="#2a2265" d="M53.078 23.443l4.892-3.087a.62.62 0 0 1 .714.043l.043.043c.172.172.223.43.138.654l-5.228 13.017a.618.618 0 0 1-.559.387V23.443z"/>
        <path fill="#2a2265" d="M1.542 32.904l5.227-13.017a.621.621 0 0 1 .56-.387c.248.009.463.155.558.387l5.228 13.017a.614.614 0 0 1-.138.654l-.043.043a.62.62 0 0 1-.714.043l-4.892-3.087-4.892 3.087a.62.62 0 0 1-.714-.043.614.614 0 0 1-.18-.697"/>
        <path fill="#2a2265" d="M7.328 30.557l4.892 3.087a.62.62 0 0 0 .714-.043l.043-.043a.615.615 0 0 0 .138-.654L7.887 19.887a.618.618 0 0 0-.559-.387v11.057z"/>
        <g fill="url(#a)" fill-rule="nonzero" transform="translate(21 18)">
            <path d="M16.686 5.167h-1.91c-.126-1.04-.511-2.013-1.123-2.767h3.033C17.412 2.4 18 1.89 18 1.208 18 .525 17.412 0 16.686 0H6.404L6.29 0l-.075.001H1.314C.588.001 0 .525 0 1.208 0 1.89.588 2.4 1.314 2.4h5.83c1.84.126 3.769.796 4.277 2.767H1.314C.588 5.167 0 5.721 0 6.403 0 7.086.588 7.64 1.314 7.64h9.976c-.62 1.558-2.326 2.508-4.695 2.508H2.45c-.708 0-1.282.54-1.282 1.205 0 .666.574 1.206 1.282 1.206h1.506l.018.003h2.38c2.584.092 3.733 1.146 4.392 4.028.516 2.141.896 3.536 1.194 4.371.224.773.667 1.937 1.435 2.632a1.6 1.6 0 0 0 1.074.407c.406 0 .812-.15 1.116-.447a1.388 1.388 0 0 0 .057-1.95c-.002-.006-.001-.014-.005-.02-.471-.822-1.042-3.028-1.738-5.825-.553-2.275-1.586-3.691-3.152-4.32 1.966-.71 3.319-2.067 3.849-3.799h2.11c.727 0 1.315-.553 1.315-1.236 0-.682-.588-1.236-1.314-1.236z"/>
        </g>
    </g>
</svg>
