<svg xmlns="http://www.w3.org/2000/svg" width="166" height="62" viewBox="0 0 166 62">
    <defs>
        <linearGradient id="a" x1="85.547%" x2="38.133%" y1="92.258%" y2="33.523%">
            <stop offset="0%" stop-color="#CB7871"/>
            <stop offset="100%" stop-color="#F2A17E"/>
        </linearGradient>
    </defs>
    <g fill="none" fill-rule="evenodd">
        <g transform="translate(0 8)">
            <circle cx="21" cy="21" r="20.25" fill="url(#a)" stroke="#CB7871" stroke-width="1.5"/>
            <g fill="#FFF" fill-rule="nonzero">
                <path d="M10.884 21.955v8.602c0 .79.643 1.433 1.433 1.433h7.168V21.955h-8.601zM30.954 16.22h-4.536a5.57 5.57 0 0 0 .8-.64 2.996 2.996 0 0 0 0-4.218c-1.124-1.132-3.082-1.13-4.205 0-.622.624-2.27 3.163-2.043 4.859h-.103c.227-1.696-1.422-4.235-2.043-4.859-1.124-1.13-3.082-1.13-4.204 0a3 3 0 0 0-.002 4.218c.197.198.476.418.802.64h-4.536c-.79 0-1.434.644-1.434 1.434v2.15c0 .396.321.717.717.717h9.318v-2.867h2.867v2.867h9.319a.717.717 0 0 0 .717-.716v-2.15c0-.79-.643-1.434-1.434-1.434zm-11.553-.047s-.06.048-.266.048c-.99 0-2.881-1.03-3.499-1.652-.6-.605-.6-1.591 0-2.196a1.523 1.523 0 0 1 1.087-.453c.408 0 .794.16 1.085.453.966.972 1.927 3.455 1.593 3.8zm3.3.048c-.204 0-.264-.046-.264-.048-.334-.345.626-2.828 1.593-3.8.577-.584 1.588-.587 2.172 0a1.561 1.561 0 0 1 0 2.196c-.618.622-2.51 1.652-3.501 1.652zM22.352 21.955V31.99h7.168c.792 0 1.434-.642 1.434-1.433v-8.602h-8.602z"/>
            </g>
        </g>
        <text fill="#3A2F2F" font-family="Montserrat-Bold, Montserrat" font-size="11" font-weight="bold" transform="translate(0 8)">
            <tspan x="52" y="24">REFER &amp; EARN</tspan>
        </text>
        <path stroke="#F2F2F2" stroke-linecap="square" stroke-width="1.5" d="M164.5 1v60"/>
    </g>
</svg>
