<svg xmlns="http://www.w3.org/2000/svg" xmlns:xlink="http://www.w3.org/1999/xlink" width="166" height="40" viewBox="0 0 166 40">
    <defs>
        <path id="a" d="M0 .189h39.952v16.45H0z"/>
        <path id="c" d="M.086.142h11.216v22.545H.086z"/>
    </defs>
    <g fill="none" fill-rule="evenodd">
        <path fill="#77C7B4" d="M1.087 14.76C.46 15.001.024 15.627 0 16.326a1.73 1.73 0 0 0 1.087 1.565l36.575 14.643a1.73 1.73 0 0 0 1.837-.385l.12-.12c.46-.555.508-1.373.121-2l-8.673-13.703L39.74 2.622c.387-.627.338-1.445-.12-2a1.727 1.727 0 0 0-1.958-.505L1.087 14.76z"/>
        <g transform="translate(0 16)">
            <mask id="b" fill="#fff">
                <use xlink:href="#a"/>
            </mask>
            <path fill="#27878E" d="M31.03.189l8.663 13.81c.386.63.338 1.456-.12 2.014l-.122.122a1.717 1.717 0 0 1-1.834.388L1.086 1.766A1.743 1.743 0 0 1 0 .19h31.03z" mask="url(#b)"/>
        </g>
        <path fill="#1E4758" d="M50.378 1.081h2.84V18.45l10.228-8.877h4.168L55.488 20.064l12.836 11.504h-3.996l-11.11-9.904v9.904h-2.84zM81.621 11.852c-2.372 0-4.411.87-6.116 2.608-1.704 1.74-2.557 3.843-2.557 6.31a8.89 8.89 0 0 0 1.166 4.449c.777 1.375 1.827 2.437 3.15 3.185 1.323.748 2.775 1.122 4.357 1.122 1.582 0 3.035-.374 4.357-1.122 1.323-.748 2.373-1.81 3.15-3.185a8.893 8.893 0 0 0 1.166-4.45c0-2.466-.855-4.57-2.567-6.309-1.711-1.739-3.746-2.608-6.106-2.608m.01-2.77c3.417 0 6.249 1.226 8.495 3.68 2.042 2.238 3.063 4.887 3.063 7.947 0 3.074-1.079 5.76-3.236 8.06-2.158 2.298-4.932 3.447-8.321 3.447-3.404 0-6.184-1.15-8.342-3.448-2.158-2.299-3.236-4.985-3.236-8.059 0-3.046 1.02-5.689 3.063-7.927 2.246-2.467 5.084-3.7 8.515-3.7M109.923 11.819c-2.45 0-4.511.858-6.186 2.572-1.676 1.716-2.513 3.85-2.513 6.401 0 1.675.374 3.18 1.12 4.518.747 1.336 1.817 2.396 3.209 3.18 1.393.783 2.863 1.174 4.41 1.174 1.52 0 2.95-.394 4.289-1.184 1.338-.79 2.405-1.895 3.199-3.312.793-1.418 1.19-2.904 1.19-4.457 0-1.566-.394-3.051-1.18-4.456-.788-1.404-1.847-2.495-3.179-3.272a8.508 8.508 0 0 0-4.36-1.164zm-11.328-2.17h2.832v4.056c1.118-1.542 2.404-2.697 3.86-3.468 1.454-.77 3.078-1.156 4.87-1.156 3.125 0 5.8 1.13 8.022 3.387 2.223 2.258 3.335 4.975 3.335 8.152 0 3.245-1.102 6-3.305 8.264-2.202 2.264-4.86 3.397-7.971 3.397-1.752 0-3.362-.365-4.83-1.096-1.47-.73-2.796-1.818-3.981-3.265v11.864h-2.832V9.649zM138.03 11.819c-2.448 0-4.51.858-6.185 2.572-1.675 1.716-2.513 3.85-2.513 6.401 0 1.675.374 3.18 1.12 4.518.747 1.336 1.817 2.396 3.21 3.18 1.392.783 2.862 1.174 4.41 1.174 1.52 0 2.949-.394 4.288-1.184 1.338-.79 2.405-1.895 3.199-3.312.794-1.418 1.19-2.904 1.19-4.457 0-1.566-.394-3.051-1.18-4.456-.788-1.404-1.847-2.495-3.179-3.272a8.508 8.508 0 0 0-4.36-1.164zm-11.327-2.17h2.832v4.056c1.118-1.542 2.404-2.697 3.86-3.468 1.454-.77 3.078-1.156 4.87-1.156 3.125 0 5.8 1.13 8.022 3.387 2.223 2.258 3.335 4.975 3.335 8.152 0 3.245-1.102 6-3.305 8.264-2.202 2.264-4.86 3.397-7.971 3.397-1.752 0-3.362-.365-4.83-1.096-1.469-.73-2.796-1.818-3.981-3.265v11.864h-2.832V9.649z"/>
        <g transform="translate(153.73 8.865)">
            <mask id="d" fill="#fff">
                <use xlink:href="#c"/>
            </mask>
            <path fill="#1E4758" d="M.086.707h2.916V3.92c.87-1.266 1.787-2.213 2.753-2.839.965-.626 1.971-.94 3.018-.94.789 0 1.632.25 2.53.748l-1.49 2.384c-.598-.256-1.1-.384-1.509-.384-.951 0-1.87.387-2.753 1.162-.884.774-1.557 1.976-2.019 3.606-.354 1.252-.53 3.784-.53 7.596v7.434H.086V.707z" mask="url(#d)"/>
        </g>
    </g>
</svg>
